<?xml version="1.0" encoding="iso-8859-1"?>
<!-- Generator: Adobe Illustrator 19.0.0, SVG Export Plug-In . SVG Version: 6.00 Build 0)  -->
<svg version="1.1" id="Capa_1" xmlns="http://www.w3.org/2000/svg" xmlns:xlink="http://www.w3.org/1999/xlink" x="0px" y="0px"
	 viewBox="0 0 512 512" style="enable-background:new 0 0 512 512;" xml:space="preserve">
<path style="fill:#FF3F62;" d="M10.997,232.384L10.997,232.384c41.26,0,74.707,33.447,74.707,74.707v80.326h95.586v-80.326
	c0-41.259,33.447-74.707,74.707-74.707l0,0c41.259,0,74.707,33.447,74.707,74.707v80.326h99.09v-80.326
	c0-41.259,33.447-74.707,74.707-74.707l0,0v-89.282H7.5v89.371C8.66,232.419,9.824,232.384,10.997,232.384z"/>
<g>
	<rect x="129.73" y="337.46" style="fill:#C70024;" width="27.832" height="27.832"/>
	<rect x="129.73" y="287.51" style="fill:#C70024;" width="27.832" height="27.832"/>
	<path style="fill:#C70024;" d="M50.997,232.384L50.997,232.384c-1.173,0-2.337,0.035-3.497,0.088v-89.371h-40v89.371
		c1.159-0.053,2.324-0.088,3.497-0.088l0,0c41.26,0,74.707,33.447,74.707,74.707v80.326h40v-80.326
		C125.704,265.832,92.256,232.384,50.997,232.384z"/>
	<path style="fill:#C70024;" d="M295.997,232.384L295.997,232.384c-6.93,0-13.632,0.964-20,2.729
		c31.544,8.747,54.707,37.648,54.707,71.977v80.326h40V307.09C370.704,265.832,337.256,232.384,295.997,232.384z"/>
</g>
<g>
	<rect x="109.73" y="337.46" style="fill:#FFE477;" width="27.832" height="27.832"/>
	<rect x="109.73" y="287.51" style="fill:#FFE477;" width="27.832" height="27.832"/>
</g>
<rect x="7.5" y="387.42" style="fill:#57A4FF;" width="497" height="51.5"/>
<rect id="SVGCleanerId_0" x="85.7" y="387.42" style="fill:#006DF0;" width="95.63" height="51.5"/>
<rect id="SVGCleanerId_1" x="330.67" y="387.42" style="fill:#006DF0;" width="99" height="51.5"/>
<rect id="SVGCleanerId_2" x="7.5" y="73.08" style="fill:#FFE477;" width="497" height="37"/>
<g>
	<rect x="109.73" y="337.46" style="fill:#FFD422;" width="27.832" height="27.832"/>
	<rect x="109.73" y="287.51" style="fill:#FFD422;" width="27.832" height="27.832"/>
</g>
<g>
	<rect id="SVGCleanerId_0_1_" x="85.7" y="387.42" style="fill:#006DF0;" width="95.63" height="51.5"/>
</g>
<g>
	<rect id="SVGCleanerId_1_1_" x="330.67" y="387.42" style="fill:#006DF0;" width="99" height="51.5"/>
</g>
<g>
	<rect id="SVGCleanerId_2_1_" x="7.5" y="73.08" style="fill:#FFE477;" width="497" height="37"/>
</g>
<rect x="7.5" y="387.42" style="fill:#006DF0;" width="40" height="51.5"/>
<rect x="7.5" y="73.08" style="fill:#FFD422;" width="40" height="37"/>
<g>
	<rect x="399.5" y="300.38" style="fill:#1D1D1F;" width="15" height="15"/>
	<rect x="399.5" y="275.38" style="fill:#1D1D1F;" width="15" height="15"/>
	<rect x="399.5" y="325.38" style="fill:#1D1D1F;" width="15" height="15"/>
	<rect x="399.5" y="350.38" style="fill:#1D1D1F;" width="15" height="15"/>
	<rect x="376" y="300.38" style="fill:#1D1D1F;" width="15" height="15"/>
	<rect x="376" y="275.38" style="fill:#1D1D1F;" width="15" height="15"/>
	<rect x="376" y="350.38" style="fill:#1D1D1F;" width="15" height="15"/>
	<rect x="376" y="325.38" style="fill:#1D1D1F;" width="15" height="15"/>
	<path style="fill:#1D1D1F;" d="M145.058,329.964h-42.832v42.832h42.832V329.964z M130.058,357.796h-12.832v-12.832h12.832V357.796z
		"/>
	<path style="fill:#1D1D1F;" d="M145.058,280.011h-42.832v42.832h42.832V280.011z M130.058,307.843h-12.832v-12.832h12.832V307.843z
		"/>
	<rect x="323.17" y="397.92" style="fill:#1D1D1F;" width="15" height="15"/>
	<rect x="422.17" y="412.92" style="fill:#1D1D1F;" width="15" height="15"/>
</g>
<g>
	<rect x="229" y="403.92" style="fill:#FFFFFF;" width="15" height="15"/>
	<rect x="254" y="403.92" style="fill:#FFFFFF;" width="56" height="15"/>
	<rect x="204" y="403.92" style="fill:#FFFFFF;" width="15" height="15"/>
	<rect x="438" y="173.79" style="fill:#FFFFFF;" width="15" height="15"/>
	<rect x="53.33" y="173.79" style="fill:#FFFFFF;" width="374.67" height="15"/>
	<rect x="463" y="173.79" style="fill:#FFFFFF;" width="15" height="15"/>
</g>
<g>
	<rect x="26.17" y="162.92" style="fill:#1D1D1F;" width="15" height="36"/>
	<rect x="455" y="204.92" style="fill:#1D1D1F;" width="31.5" height="15"/>
	<rect x="346.25" y="332.92" style="fill:#1D1D1F;" width="15" height="37.5"/>
	<path style="fill:#1D1D1F;" d="M512,117.58v-52H38.5l-0.05,15H497v22H15v-22h8.5l0.05-14.95L0,65.58v51.95l18.5,0.002V135.6H0.05
		L0,240.32l7.84-0.36c1.14-0.05,2.17-0.07,3.16-0.07c17.939,0,34.819,6.99,47.52,19.68c12.69,12.7,19.681,29.58,19.681,47.52v72.842
		L0,379.92v66.45l39.55,0.05v-15H15v-36.5h63.204v14.625h15V394.92h80.629v14.739h15V394.92h233.334v7.997h15v-7.997H497v36.5
		H338.167v-8.503h-15v8.503H188.833v-11.761h-15v11.758H93.204v-11.871h-15v11.875H54.5l-0.05,14.95L512,446.42v-66.5h-74.71v-72.83
		c0.01-17.94,7-34.82,19.689-47.52c12.7-12.69,29.58-19.68,47.521-19.68h7.45L512,135.6h-16.5v-18.021L512,117.58z M363.5,135.6
		v-18.034l51,0.005V135.6H363.5z M99.5,135.6v-18.06l51,0.005V135.6H99.5z M165.5,117.546l51,0.005V135.6h-51V117.546z
		 M231.5,117.553l51,0.005V135.6h-51V117.553z M297.5,117.559l51,0.005V135.6h-51V117.559z M33.5,117.533l51,0.005V135.6h-51
		V117.533z M480.5,135.6h-16.15l-0.05,15H497v74.62c-14.182,1.283-27.625,6.217-39.173,14.197H345.5v15h95.879
		c-12.331,14.764-19.089,33.319-19.089,52.673v72.83l-84.09-0.003V307.09c0-16.12-4.66-31.72-13.48-45.13l-0.03-0.04l-12.489,8.21
		l-0.021,0.02v0.14l0.04-0.04c7.18,10.95,10.98,23.69,10.98,36.84v72.827h-0.033v0.053l-134.377-0.021V307.09
		c0-17.94,6.99-34.82,19.689-47.52c12.7-12.69,29.57-19.68,47.521-19.68c18.03,0,34.97,7.05,47.689,19.85l0.04,0.04l10.61-10.54
		l0.03-0.03l-0.03-0.04c-7.55-7.6-16.36-13.58-26.2-17.76c-10.18-4.33-20.99-6.53-32.14-6.53c-11.101,0-21.87,2.18-32,6.47
		c-5.184,2.192-10.079,4.898-14.667,8.067H92.519v15H192.89c-5.215,6.231-9.46,13.154-12.64,20.673c-4.28,10.14-6.46,20.9-6.46,32
		v72.827H93.2V307.09c0-21.27-8.091-41.45-22.79-56.81c-14.63-15.3-34.31-24.29-55.41-25.3V150.6h434.35l0.05-15h-19.9v-18.028
		l51,0.005V135.6z"/>
</g>
<g>
	<rect x="340.5" y="84.08" style="fill:#FFFFFF;" width="122" height="15"/>
	<rect x="290.5" y="84.08" style="fill:#FFFFFF;" width="15" height="15"/>
	<rect x="315.5" y="84.08" style="fill:#FFFFFF;" width="15" height="15"/>
</g>
<g>
</g>
<g>
</g>
<g>
</g>
<g>
</g>
<g>
</g>
<g>
</g>
<g>
</g>
<g>
</g>
<g>
</g>
<g>
</g>
<g>
</g>
<g>
</g>
<g>
</g>
<g>
</g>
<g>
</g>
</svg>
